{
    "asset" : {
        "generator" : "Khronos glTF Blender I/O v0.9.36",
        "version" : "2.0"
    },
    "scene" : 0,
    "scenes" : [
        {
            "name" : "Scene",
            "nodes" : [
                0,
                1,
                2,
                3,
                4,
                5,
                6,
                7,
                8,
                9,
                10
            ]
        }
    ],
    "nodes" : [
        {
            "mesh" : 0,
            "name" : "MH1_OBJ_02",
            "rotation" : [
                0.7071068286895752,
                0,
                0,
                0.7071067094802856
            ]
        },
        {
            "mesh" : 1,
            "name" : "MH1_OBJ_10",
            "rotation" : [
                0.7071068286895752,
                0,
                0,
                0.7071067094802856
            ]
        },
        {
            "mesh" : 2,
            "name" : "MH1_OBJ_09",
            "rotation" : [
                0.7071068286895752,
                0,
                0,
                0.7071067094802856
            ]
        },
        {
            "mesh" : 3,
            "name" : "MH1_OBJ_07",
            "rotation" : [
                0.7071068286895752,
                0,
                0,
                0.7071067094802856
            ]
        },
        {
            "mesh" : 4,
            "name" : "MH1_OBJ_01",
            "rotation" : [
                0.7071068286895752,
                0,
                0,
                0.7071067094802856
            ]
        },
        {
            "mesh" : 5,
            "name" : "MH1_OBJ_06",
            "rotation" : [
                0.7071068286895752,
                0,
                0,
                0.7071067094802856
            ]
        },
        {
            "mesh" : 6,
            "name" : "MH1_OBJ_05",
            "rotation" : [
                0.7071068286895752,
                0,
                0,
                0.7071067094802856
            ]
        },
        {
            "mesh" : 7,
            "name" : "MH1_OBJ_03",
            "rotation" : [
                0.7071068286895752,
                0,
                0,
                0.7071067094802856
            ]
        },
        {
            "mesh" : 8,
            "name" : "MH1_OBJ_08",
            "rotation" : [
                0.7071068286895752,
                0,
                0,
                0.7071067094802856
            ]
        },
        {
            "mesh" : 9,
            "name" : "MH1_OBJ_04",
            "rotation" : [
                0.7071068286895752,
                0,
                0,
                0.7071067094802856
            ]
        },
        {
            "mesh" : 10,
            "name" : "MH1_OBJ_11",
            "rotation" : [
                0.7071068286895752,
                0,
                0,
                0.7071067094802856
            ]
        }
    ],
    "materials" : [
        {
            "doubleSided" : true,
            "name" : "Modern_House_01",
            "pbrMetallicRoughness" : {}
        }
    ],
    "meshes" : [
        {
            "name" : "MH1_OBJ_02",
            "primitives" : [
                {
                    "attributes" : {
                        "POSITION" : 0,
                        "NORMAL" : 1,
                        "TEXCOORD_0" : 2
                    },
                    "indices" : 3,
                    "material" : 0
                }
            ]
        },
        {
            "name" : "MH1_OBJ_10",
            "primitives" : [
                {
                    "attributes" : {
                        "POSITION" : 4,
                        "NORMAL" : 5,
                        "TEXCOORD_0" : 6
                    },
                    "indices" : 7,
                    "material" : 0
                }
            ]
        },
        {
            "name" : "MH1_OBJ_09",
            "primitives" : [
                {
                    "attributes" : {
                        "POSITION" : 8,
                        "NORMAL" : 9,
                        "TEXCOORD_0" : 10
                    },
                    "indices" : 11,
                    "material" : 0
                }
            ]
        },
        {
            "name" : "MH1_OBJ_07",
            "primitives" : [
                {
                    "attributes" : {
                        "POSITION" : 12,
                        "NORMAL" : 13,
                        "TEXCOORD_0" : 14
                    },
                    "indices" : 15,
                    "material" : 0
                }
            ]
        },
        {
            "name" : "MH1_OBJ_01",
            "primitives" : [
                {
                    "attributes" : {
                        "POSITION" : 16,
                        "NORMAL" : 17,
                        "TEXCOORD_0" : 18
                    },
                    "indices" : 19,
                    "material" : 0
                }
            ]
        },
        {
            "name" : "MH1_OBJ_06",
            "primitives" : [
                {
                    "attributes" : {
                        "POSITION" : 20,
                        "NORMAL" : 21,
                        "TEXCOORD_0" : 22
                    },
                    "indices" : 23,
                    "material" : 0
                }
            ]
        },
        {
            "name" : "MH1_OBJ_05",
            "primitives" : [
                {
                    "attributes" : {
                        "POSITION" : 24,
                        "NORMAL" : 25,
                        "TEXCOORD_0" : 26
                    },
                    "indices" : 27,
                    "material" : 0
                }
            ]
        },
        {
            "name" : "MH1_OBJ_03",
            "primitives" : [
                {
                    "attributes" : {
                        "POSITION" : 28,
                        "NORMAL" : 29,
                        "TEXCOORD_0" : 30
                    },
                    "indices" : 31,
                    "material" : 0
                }
            ]
        },
        {
            "name" : "MH1_OBJ_08",
            "primitives" : [
                {
                    "attributes" : {
                        "POSITION" : 32,
                        "NORMAL" : 33,
                        "TEXCOORD_0" : 34
                    },
                    "indices" : 35,
                    "material" : 0
                }
            ]
        },
        {
            "name" : "MH1_OBJ_04",
            "primitives" : [
                {
                    "attributes" : {
                        "POSITION" : 36,
                        "NORMAL" : 37,
                        "TEXCOORD_0" : 38
                    },
                    "indices" : 39,
                    "material" : 0
                }
            ]
        },
        {
            "name" : "MH1_OBJ_11",
            "primitives" : [
                {
                    "attributes" : {
                        "POSITION" : 40,
                        "NORMAL" : 41,
                        "TEXCOORD_0" : 42
                    },
                    "indices" : 43,
                    "material" : 0
                }
            ]
        }
    ],
    "accessors" : [
        {
            "bufferView" : 0,
            "componentType" : 5126,
            "count" : 3352,
            "max" : [
                298.9762878417969,
                286.0376892089844,
                -48
            ],
            "min" : [
                -288.04840087890625,
                -215.03770446777344,
                -252
            ],
            "type" : "VEC3"
        },
        {
            "bufferView" : 1,
            "componentType" : 5126,
            "count" : 3352,
            "type" : "VEC3"
        },
        {
            "bufferView" : 2,
            "componentType" : 5126,
            "count" : 3352,
            "type" : "VEC2"
        },
        {
            "bufferView" : 3,
            "componentType" : 5123,
            "count" : 5868,
            "type" : "SCALAR"
        },
        {
            "bufferView" : 4,
            "componentType" : 5126,
            "count" : 2978,
            "max" : [
                304.9761962890625,
                321.0813903808594,
                0
            ],
            "min" : [
                -332.0238952636719,
                -275.0376892089844,
                -318
            ],
            "type" : "VEC3"
        },
        {
            "bufferView" : 5,
            "componentType" : 5126,
            "count" : 2978,
            "type" : "VEC3"
        },
        {
            "bufferView" : 6,
            "componentType" : 5126,
            "count" : 2978,
            "type" : "VEC2"
        },
        {
            "bufferView" : 7,
            "componentType" : 5123,
            "count" : 5328,
            "type" : "SCALAR"
        },
        {
            "bufferView" : 8,
            "componentType" : 5126,
            "count" : 820,
            "max" : [
                -217.0238037109375,
                280.0376892089844,
                0
            ],
            "min" : [
                -319.0238037109375,
                58.620399475097656,
                -169
            ],
            "type" : "VEC3"
        },
        {
            "bufferView" : 9,
            "componentType" : 5126,
            "count" : 820,
            "type" : "VEC3"
        },
        {
            "bufferView" : 10,
            "componentType" : 5126,
            "count" : 820,
            "type" : "VEC2"
        },
        {
            "bufferView" : 11,
            "componentType" : 5123,
            "count" : 1398,
            "type" : "SCALAR"
        },
        {
            "bufferView" : 12,
            "componentType" : 5126,
            "count" : 384,
            "max" : [
                298.9761962890625,
                287.0376892089844,
                0
            ],
            "min" : [
                -331.0238952636719,
                -467.0376892089844,
                -98
            ],
            "type" : "VEC3"
        },
        {
            "bufferView" : 13,
            "componentType" : 5126,
            "count" : 384,
            "type" : "VEC3"
        },
        {
            "bufferView" : 14,
            "componentType" : 5126,
            "count" : 384,
            "type" : "VEC2"
        },
        {
            "bufferView" : 15,
            "componentType" : 5123,
            "count" : 576,
            "type" : "SCALAR"
        },
        {
            "bufferView" : 16,
            "componentType" : 5126,
            "count" : 875,
            "max" : [
                193.92860412597656,
                287.0376892089844,
                -119.9999008178711
            ],
            "min" : [
                -205.0238037109375,
                -275.0378112792969,
                -234.00010681152344
            ],
            "type" : "VEC3"
        },
        {
            "bufferView" : 17,
            "componentType" : 5126,
            "count" : 875,
            "type" : "VEC3"
        },
        {
            "bufferView" : 18,
            "componentType" : 5126,
            "count" : 875,
            "type" : "VEC2"
        },
        {
            "bufferView" : 19,
            "componentType" : 5123,
            "count" : 1380,
            "type" : "SCALAR"
        },
        {
            "bufferView" : 20,
            "componentType" : 5126,
            "count" : 4329,
            "max" : [
                202.9761962890625,
                287.0376892089844,
                -6
            ],
            "min" : [
                -259.0238037109375,
                -215.03770446777344,
                -222
            ],
            "type" : "VEC3"
        },
        {
            "bufferView" : 21,
            "componentType" : 5126,
            "count" : 4329,
            "type" : "VEC3"
        },
        {
            "bufferView" : 22,
            "componentType" : 5126,
            "count" : 4329,
            "type" : "VEC2"
        },
        {
            "bufferView" : 23,
            "componentType" : 5123,
            "count" : 7032,
            "type" : "SCALAR"
        },
        {
            "bufferView" : 24,
            "componentType" : 5126,
            "count" : 1152,
            "max" : [
                332.0238952636719,
                320.0852966308594,
                -234
            ],
            "min" : [
                -319.03271484375,
                -308.0935974121094,
                -271
            ],
            "type" : "VEC3"
        },
        {
            "bufferView" : 25,
            "componentType" : 5126,
            "count" : 1152,
            "type" : "VEC3"
        },
        {
            "bufferView" : 26,
            "componentType" : 5126,
            "count" : 1152,
            "type" : "VEC2"
        },
        {
            "bufferView" : 27,
            "componentType" : 5123,
            "count" : 1788,
            "type" : "SCALAR"
        },
        {
            "bufferView" : 28,
            "componentType" : 5126,
            "count" : 630,
            "max" : [
                298.9762878417969,
                347.0376892089844,
                0
            ],
            "min" : [
                -319.0238037109375,
                -292.0082092285156,
                -138
            ],
            "type" : "VEC3"
        },
        {
            "bufferView" : 29,
            "componentType" : 5126,
            "count" : 630,
            "type" : "VEC3"
        },
        {
            "bufferView" : 30,
            "componentType" : 5126,
            "count" : 630,
            "type" : "VEC2"
        },
        {
            "bufferView" : 31,
            "componentType" : 5123,
            "count" : 1302,
            "type" : "SCALAR"
        },
        {
            "bufferView" : 32,
            "componentType" : 5126,
            "count" : 86,
            "max" : [
                298.9762878417969,
                467.0376892089844,
                0
            ],
            "min" : [
                -332.0238037109375,
                -455.0376892089844,
                -6
            ],
            "type" : "VEC3"
        },
        {
            "bufferView" : 33,
            "componentType" : 5126,
            "count" : 86,
            "type" : "VEC3"
        },
        {
            "bufferView" : 34,
            "componentType" : 5126,
            "count" : 86,
            "type" : "VEC2"
        },
        {
            "bufferView" : 35,
            "componentType" : 5123,
            "count" : 162,
            "type" : "SCALAR"
        },
        {
            "bufferView" : 36,
            "componentType" : 5126,
            "count" : 576,
            "max" : [
                202.97630310058594,
                221.03770446777344,
                -18
            ],
            "min" : [
                -319.0238952636719,
                -209.03770446777344,
                -258.0000915527344
            ],
            "type" : "VEC3"
        },
        {
            "bufferView" : 37,
            "componentType" : 5126,
            "count" : 576,
            "type" : "VEC3"
        },
        {
            "bufferView" : 38,
            "componentType" : 5126,
            "count" : 576,
            "type" : "VEC2"
        },
        {
            "bufferView" : 39,
            "componentType" : 5123,
            "count" : 864,
            "type" : "SCALAR"
        },
        {
            "bufferView" : 40,
            "componentType" : 5126,
            "count" : 3095,
            "max" : [
                294.00408935546875,
                287.0376892089844,
                -4
            ],
            "min" : [
                -325.63470458984375,
                -462.19781494140625,
                -98
            ],
            "type" : "VEC3"
        },
        {
            "bufferView" : 41,
            "componentType" : 5126,
            "count" : 3095,
            "type" : "VEC3"
        },
        {
            "bufferView" : 42,
            "componentType" : 5126,
            "count" : 3095,
            "type" : "VEC2"
        },
        {
            "bufferView" : 43,
            "componentType" : 5123,
            "count" : 4752,
            "type" : "SCALAR"
        }
    ],
    "bufferViews" : [
        {
            "buffer" : 0,
            "byteLength" : 40224,
            "byteOffset" : 0
        },
        {
            "buffer" : 0,
            "byteLength" : 40224,
            "byteOffset" : 40224
        },
        {
            "buffer" : 0,
            "byteLength" : 26816,
            "byteOffset" : 80448
        },
        {
            "buffer" : 0,
            "byteLength" : 11736,
            "byteOffset" : 107264
        },
        {
            "buffer" : 0,
            "byteLength" : 35736,
            "byteOffset" : 119000
        },
        {
            "buffer" : 0,
            "byteLength" : 35736,
            "byteOffset" : 154736
        },
        {
            "buffer" : 0,
            "byteLength" : 23824,
            "byteOffset" : 190472
        },
        {
            "buffer" : 0,
            "byteLength" : 10656,
            "byteOffset" : 214296
        },
        {
            "buffer" : 0,
            "byteLength" : 9840,
            "byteOffset" : 224952
        },
        {
            "buffer" : 0,
            "byteLength" : 9840,
            "byteOffset" : 234792
        },
        {
            "buffer" : 0,
            "byteLength" : 6560,
            "byteOffset" : 244632
        },
        {
            "buffer" : 0,
            "byteLength" : 2796,
            "byteOffset" : 251192
        },
        {
            "buffer" : 0,
            "byteLength" : 4608,
            "byteOffset" : 253988
        },
        {
            "buffer" : 0,
            "byteLength" : 4608,
            "byteOffset" : 258596
        },
        {
            "buffer" : 0,
            "byteLength" : 3072,
            "byteOffset" : 263204
        },
        {
            "buffer" : 0,
            "byteLength" : 1152,
            "byteOffset" : 266276
        },
        {
            "buffer" : 0,
            "byteLength" : 10500,
            "byteOffset" : 267428
        },
        {
            "buffer" : 0,
            "byteLength" : 10500,
            "byteOffset" : 277928
        },
        {
            "buffer" : 0,
            "byteLength" : 7000,
            "byteOffset" : 288428
        },
        {
            "buffer" : 0,
            "byteLength" : 2760,
            "byteOffset" : 295428
        },
        {
            "buffer" : 0,
            "byteLength" : 51948,
            "byteOffset" : 298188
        },
        {
            "buffer" : 0,
            "byteLength" : 51948,
            "byteOffset" : 350136
        },
        {
            "buffer" : 0,
            "byteLength" : 34632,
            "byteOffset" : 402084
        },
        {
            "buffer" : 0,
            "byteLength" : 14064,
            "byteOffset" : 436716
        },
        {
            "buffer" : 0,
            "byteLength" : 13824,
            "byteOffset" : 450780
        },
        {
            "buffer" : 0,
            "byteLength" : 13824,
            "byteOffset" : 464604
        },
        {
            "buffer" : 0,
            "byteLength" : 9216,
            "byteOffset" : 478428
        },
        {
            "buffer" : 0,
            "byteLength" : 3576,
            "byteOffset" : 487644
        },
        {
            "buffer" : 0,
            "byteLength" : 7560,
            "byteOffset" : 491220
        },
        {
            "buffer" : 0,
            "byteLength" : 7560,
            "byteOffset" : 498780
        },
        {
            "buffer" : 0,
            "byteLength" : 5040,
            "byteOffset" : 506340
        },
        {
            "buffer" : 0,
            "byteLength" : 2604,
            "byteOffset" : 511380
        },
        {
            "buffer" : 0,
            "byteLength" : 1032,
            "byteOffset" : 513984
        },
        {
            "buffer" : 0,
            "byteLength" : 1032,
            "byteOffset" : 515016
        },
        {
            "buffer" : 0,
            "byteLength" : 688,
            "byteOffset" : 516048
        },
        {
            "buffer" : 0,
            "byteLength" : 324,
            "byteOffset" : 516736
        },
        {
            "buffer" : 0,
            "byteLength" : 6912,
            "byteOffset" : 517060
        },
        {
            "buffer" : 0,
            "byteLength" : 6912,
            "byteOffset" : 523972
        },
        {
            "buffer" : 0,
            "byteLength" : 4608,
            "byteOffset" : 530884
        },
        {
            "buffer" : 0,
            "byteLength" : 1728,
            "byteOffset" : 535492
        },
        {
            "buffer" : 0,
            "byteLength" : 37140,
            "byteOffset" : 537220
        },
        {
            "buffer" : 0,
            "byteLength" : 37140,
            "byteOffset" : 574360
        },
        {
            "buffer" : 0,
            "byteLength" : 24760,
            "byteOffset" : 611500
        },
        {
            "buffer" : 0,
            "byteLength" : 9504,
            "byteOffset" : 636260
        }
    ],
    "buffers" : [
        {
            "byteLength" : 645764,
            "uri" : "data:application/octet-stream;base64,"
        }
    ]
}
